<?xml version="1.0" encoding="UTF-8"?>
<svg id="Layer_1" data-name="Layer 1" xmlns="http://www.w3.org/2000/svg" viewBox="0 0 1160.53 376.22">
  <defs>
    <style>
      .cls-1 {
        font-size: 304.78px;
      }

      .cls-1, .cls-2 {
        fill: #fff;
        font-family: Arial-BoldMT, Arial;
        font-weight: 700;
      }

      .cls-3 {
        fill: #986dff;
      }

      .cls-2 {
        font-size: 302.99px;
      }
    </style>
  </defs>
  <path class="cls-3" d="m277.25,75.05c-3.92,0-7.01.47-9.26,1.42-2.06.95-3.55,3.07-4.48,6.38-.75,3.31-1.12,8.59-1.12,15.83v23.16c0,5.99-1.12,11.19-3.37,15.6-2.06,4.25-4.49,7.72-7.29,10.4-2.81,2.68-5.42,4.73-7.86,6.14,2.06,1.26,4.49,3.23,7.29,5.91,2.99,2.52,5.61,5.67,7.86,9.45,2.24,3.62,3.37,7.72,3.37,12.29v28.36c0,7.09.37,12.29,1.12,15.6.93,3.31,2.42,5.44,4.48,6.38,2.24.94,5.33,1.42,9.26,1.42h10.38v28.83h-22.16c-5.23,0-10.47-.08-15.7-.24-5.05-.16-9.72-1.02-14.02-2.6-4.3-1.42-7.77-4.18-10.38-8.27-2.43-3.94-3.65-9.69-3.65-17.25v-38.99c0-4.73-.84-9.14-2.52-13.23-1.69-4.25-4.21-7.72-7.58-10.4-3.36-2.68-7.57-4.02-12.62-4.02v-27.41c5.05-.16,9.26-1.5,12.62-4.02,3.37-2.68,5.89-6.07,7.58-10.16,1.68-4.25,2.52-8.74,2.52-13.47v-37.34c0-7.56,1.21-13.31,3.65-17.25,2.43-3.94,5.7-6.7,9.81-8.27,4.3-1.58,9.07-2.44,14.3-2.6,5.23-.32,10.56-.47,15.98-.47h22.16v28.83h-10.38Zm161.7,79.17c0,15.83-2.33,30.65-7.01,44.46-4.49,13.81-10.28,26.07-17.38,36.78-7.1,10.86-14.68,19.78-22.72,26.77l-32.25-12.34c7.29-6.98,13.84-15.21,19.63-24.67,5.8-9.31,10.38-19.86,13.75-31.65,3.37-11.95,5.05-25.06,5.05-39.34s-1.68-27.31-5.05-39.1c-3.37-11.95-7.95-22.58-13.75-31.89-5.79-9.47-12.34-17.61-19.63-24.44l32.25-12.57c8.04,6.98,15.61,15.91,22.72,26.77,7.1,10.86,12.89,23.2,17.38,37.01,4.68,13.66,7.01,28.4,7.01,44.22Z"/>
  <text class="cls-2" transform="translate(0 262.15) scale(.93 1)"><tspan x="0" y="0">E</tspan></text>
  <text class="cls-1" transform="translate(449.47 261.48)"><tspan x="0" y="0">ITHH</tspan></text>
</svg>