<?xml version="1.0" encoding="UTF-8" standalone="no" ?>
<!DOCTYPE svg PUBLIC "-//W3C//DTD SVG 1.1//EN" "http://www.w3.org/Graphics/SVG/1.1/DTD/svg11.dtd">
<svg xmlns="http://www.w3.org/2000/svg" xmlns:xlink="http://www.w3.org/1999/xlink" version="1.1" width="1080" height="1080" viewBox="0 0 1080 1080" xml:space="preserve">
<desc>Created with Fabric.js 5.2.4</desc>
<defs>
</defs>
<g transform="matrix(1 0 0 1 540 540)" id="51a8efd2-3aa5-4b7a-b113-a5d574d34d05"  >
<rect style="stroke: none; stroke-width: 1; stroke-dasharray: none; stroke-linecap: butt; stroke-dashoffset: 0; stroke-linejoin: miter; stroke-miterlimit: 4; fill: rgb(255,255,255); fill-rule: nonzero; opacity: 1; visibility: hidden;" vector-effect="non-scaling-stroke"  x="-540" y="-540" rx="0" ry="0" width="1080" height="1080" />
</g>
<g transform="matrix(1 0 0 1 540 540)" id="47012cdc-be89-4cc9-ae09-68030bff5138"  >
</g>
<g transform="matrix(1 0 0 1 540 540)"  >
<g style="" vector-effect="non-scaling-stroke"   >
		<g transform="matrix(1 0 0 1 -1.61 -19.85)"  >
<rect style="stroke: none; stroke-width: 1; stroke-dasharray: none; stroke-linecap: butt; stroke-dashoffset: 0; stroke-linejoin: miter; stroke-miterlimit: 4; fill: none; fill-rule: nonzero; opacity: 1;" vector-effect="non-scaling-stroke"  x="-85.54" y="-11.45" rx="0" ry="0" width="171.08" height="22.9" />
</g>
		<g transform="matrix(0.98 0 0 1 40.28 8.12)" style=""  >
		<text xml:space="preserve" font-family="Arial-BoldMT, Arial" font-size="41" font-style="normal" font-weight="700" style="stroke: none; stroke-width: 1; stroke-dasharray: none; stroke-linecap: butt; stroke-dashoffset: 0; stroke-linejoin: miter; stroke-miterlimit: 4; fill: rgb(255,255,255); fill-rule: nonzero; opacity: 1; white-space: pre;" ><tspan x="-47.83" y="12.88" >ITHH</tspan></text>
</g>
		<g transform="matrix(0.98 0 0 1 -57.29 8.14)" style=""  >
		<text xml:space="preserve" font-family="Arial-BoldMT, Arial" font-size="41" font-style="normal" font-weight="700" style="stroke: none; stroke-width: 1; stroke-dasharray: none; stroke-linecap: butt; stroke-dashoffset: 0; stroke-linejoin: miter; stroke-miterlimit: 4; fill: rgb(255,255,255); fill-rule: nonzero; opacity: 1; white-space: pre;" ><tspan x="-13.67" y="12.88" >E</tspan></text>
</g>
		<g transform="matrix(1 0 0 1 -24.88 6.27)"  >
<path style="stroke: none; stroke-width: 1; stroke-dasharray: none; stroke-linecap: butt; stroke-dashoffset: 0; stroke-linejoin: miter; stroke-miterlimit: 4; fill: rgb(152,109,255); fill-rule: nonzero; opacity: 1;" vector-effect="non-scaling-stroke"  transform=" translate(-62.27, -37.58)" d="M 54.89 26.76 C 54.45 26.76 54.1 26.82 53.85 26.950000000000003 C 53.620000000000005 27.080000000000002 53.45 27.360000000000003 53.34 27.800000000000004 C 53.25 28.240000000000006 53.21 28.950000000000003 53.21 29.920000000000005 L 53.21 33.02 C 53.21 33.82 53.08 34.52 52.83 35.11 C 52.6 35.68 52.32 36.14 52.01 36.5 C 51.69 36.86 51.4 37.13 51.12 37.32 C 51.349999999999994 37.49 51.629999999999995 37.75 51.94 38.11 C 52.28 38.45 52.57 38.87 52.83 39.37 C 53.08 39.849999999999994 53.21 40.4 53.21 41.01 L 53.21 44.8 C 53.21 45.75 53.25 46.44 53.34 46.89 C 53.45 47.33 53.61000000000001 47.62 53.85 47.74 C 54.1 47.870000000000005 54.45 47.93 54.89 47.93 L 56.06 47.93 L 56.06 51.79 L 53.56 51.79 C 52.97 51.79 52.38 51.78 51.79 51.76 C 51.22 51.739999999999995 50.69 51.62 50.21 51.41 C 49.730000000000004 51.22 49.33 50.849999999999994 49.04 50.3 C 48.769999999999996 49.769999999999996 48.63 49 48.63 47.989999999999995 L 48.63 42.779999999999994 C 48.63 42.14999999999999 48.53 41.559999999999995 48.35 41.00999999999999 C 48.160000000000004 40.43999999999999 47.88 39.97999999999999 47.5 39.61999999999999 C 47.12 39.25999999999999 46.65 39.07999999999999 46.08 39.07999999999999 L 46.08 35.40999999999999 C 46.65 35.389999999999986 47.12 35.20999999999999 47.5 34.86999999999999 C 47.88 34.50999999999999 48.16 34.05999999999999 48.35 33.50999999999999 C 48.54 32.93999999999999 48.63 32.33999999999999 48.63 31.70999999999999 L 48.63 26.71999999999999 C 48.63 25.70999999999999 48.77 24.93999999999999 49.04 24.409999999999993 C 49.31 23.879999999999992 49.68 23.509999999999994 50.15 23.299999999999994 C 50.629999999999995 23.089999999999993 51.17 22.969999999999995 51.76 22.949999999999992 C 52.35 22.909999999999993 52.949999999999996 22.889999999999993 53.559999999999995 22.889999999999993 L 56.059999999999995 22.889999999999993 L 56.059999999999995 26.749999999999993 L 54.88999999999999 26.749999999999993 Z M 78.47 37.6 C 78.47 39.75 78.21 41.760000000000005 77.67999999999999 43.64 C 77.16999999999999 45.52 76.52 47.18 75.72 48.63 C 74.92 50.1 74.06 51.32 73.16 52.260000000000005 L 69.52 50.580000000000005 C 70.33999999999999 49.63 71.08 48.52 71.72999999999999 47.230000000000004 C 72.38 45.970000000000006 72.89999999999999 44.53 73.27999999999999 42.93000000000001 C 73.65999999999998 41.31000000000001 73.84999999999998 39.53000000000001 73.84999999999998 37.59 C 73.84999999999998 35.65 73.65999999999998 33.88 73.27999999999999 32.28 C 72.89999999999999 30.66 72.37999999999998 29.21 71.72999999999999 27.950000000000003 C 71.07999999999998 26.660000000000004 70.33999999999999 25.560000000000002 69.52 24.630000000000003 L 73.16 22.92 C 73.16 22.92 74.92 25.080000000000002 75.72 26.55 C 76.52 28.02 77.17 29.7 77.67999999999999 31.580000000000002 C 78.21 33.43 78.47 35.440000000000005 78.47 37.58 Z" stroke-linecap="round" />
</g>
		<g transform="matrix(1 0 0 1 -39.06 15.12)"  >
<line style="stroke: none; stroke-width: 1; stroke-dasharray: none; stroke-linecap: butt; stroke-dashoffset: 0; stroke-linejoin: miter; stroke-miterlimit: 4; fill: none; fill-rule: nonzero; opacity: 1;" vector-effect="non-scaling-stroke"  x1="-45" y1="0.04499999999999815" x2="45" y2="-0.04499999999999815" />
</g>
</g>
</g>
</svg>