<?xml version="1.0" encoding="UTF-8"?>
<svg id="Layer_1" data-name="Layer 1" xmlns="http://www.w3.org/2000/svg" viewBox="0 0 256.61 99.65">
  <defs>
    <style>
      .cls-1 {
        fill: #fff;
        font-family: Arial-BoldMT, Arial;
        font-size: 40.73px;
        font-weight: 700;
      }

      .cls-2 {
        fill: #986dff;
      }
    </style>
  </defs>
  <path class="cls-2" d="m40.27,9.01c-.47,0-.84.07-1.11.2-.25.13-.42.43-.53.9-.09.47-.13,1.22-.13,2.24v3.28c0,.85-.13,1.58-.4,2.21-.25.6-.54,1.09-.87,1.47-.34.38-.65.67-.94.87.25.18.54.46.87.84.36.36.67.8.94,1.34.27.51.4,1.09.4,1.74v4.02c0,1,.04,1.74.13,2.21.11.47.29.77.53.9.27.13.64.2,1.11.2h1.24v4.08h-2.65c-.62,0-1.25-.01-1.87-.03-.6-.02-1.16-.14-1.67-.37-.51-.2-.93-.59-1.24-1.17-.29-.56-.44-1.37-.44-2.44v-5.52c0-.67-.1-1.29-.3-1.87-.2-.6-.5-1.09-.9-1.47-.4-.38-.9-.57-1.51-.57v-3.88c.6-.02,1.11-.21,1.51-.57.4-.38.7-.86.9-1.44.2-.6.3-1.24.3-1.91v-5.29c0-1.07.14-1.88.44-2.44.29-.56.68-.95,1.17-1.17.51-.22,1.08-.35,1.71-.37.62-.04,1.26-.07,1.91-.07h2.65v4.08h-1.24Zm23.48,11.21c0,2.28-.28,4.41-.84,6.39-.54,1.99-1.23,3.75-2.08,5.29-.85,1.56-1.75,2.84-2.71,3.85l-3.85-1.77c.87-1,1.65-2.19,2.34-3.55.69-1.34,1.24-2.86,1.64-4.55.4-1.72.6-3.6.6-5.65s-.2-3.93-.6-5.62c-.4-1.72-.95-3.25-1.64-4.58-.69-1.36-1.47-2.53-2.34-3.51l3.85-1.81c.96,1,1.86,2.29,2.71,3.85s1.54,3.33,2.08,5.32c.56,1.96.84,4.08.84,6.36Z"/>
  <text class="cls-1" transform="translate(0 35.33)"><tspan x="0" y="0">E</tspan></text>
  <text class="cls-1" transform="translate(71.33 34.94)"><tspan x="0" y="0">ITHH</tspan></text>
</svg>